<?xml version="1.0" encoding="UTF-8"?>
<svg xmlns="http://www.w3.org/2000/svg" width="520" height="245" viewBox="0 0 520 245" role="img">
  <title>Samar Singh GitHub analytics</title>
  <rect width="100%" height="100%" rx="14" fill="#0d1117"/>
  <text x="28" y="38" fill="#70a5fd" font-family="Arial, Helvetica, sans-serif" font-size="22px" font-weight="700" text-anchor="start">Top Languages by Repository</text>\n  <circle cx="130" cy="135" r="78" fill="none" stroke="#161b22" stroke-width="34"/>\n  <circle cx="130" cy="135" r="78" fill="none" stroke="#3776ab" stroke-width="34" stroke-dasharray="201.80 288.29" stroke-dashoffset="-0.00" transform="rotate(-90 130 135)"/>\n  <circle cx="130" cy="135" r="78" fill="none" stroke="#f34b7d" stroke-width="34" stroke-dasharray="115.31 374.77" stroke-dashoffset="-201.80" transform="rotate(-90 130 135)"/>\n  <circle cx="130" cy="135" r="78" fill="none" stroke="#f1e05a" stroke-width="34" stroke-dasharray="86.49 403.60" stroke-dashoffset="-317.12" transform="rotate(-90 130 135)"/>\n  <circle cx="130" cy="135" r="78" fill="none" stroke="#3178c6" stroke-width="34" stroke-dasharray="57.66 432.43" stroke-dashoffset="-403.60" transform="rotate(-90 130 135)"/>\n  <circle cx="130" cy="135" r="78" fill="none" stroke="#e34c26" stroke-width="34" stroke-dasharray="28.83 461.26" stroke-dashoffset="-461.26" transform="rotate(-90 130 135)"/>\n  <text x="130" y="131" fill="#c9d1d9" font-family="Arial, Helvetica, sans-serif" font-size="24px" font-weight="700" text-anchor="middle">20</text>\n  <text x="130" y="153" fill="#8b949e" font-family="Arial, Helvetica, sans-serif" font-size="12px" font-weight="400" text-anchor="middle">repos</text>\n  <circle cx="290" cy="71" r="6" fill="#3776ab"/>\n  <text x="305" y="76" fill="#c9d1d9" font-family="Arial, Helvetica, sans-serif" font-size="14px" font-weight="400" text-anchor="start">Python  41%</text>\n  <circle cx="290" cy="98" r="6" fill="#f34b7d"/>\n  <text x="305" y="103" fill="#c9d1d9" font-family="Arial, Helvetica, sans-serif" font-size="14px" font-weight="400" text-anchor="start">HTML  24%</text>\n  <circle cx="290" cy="125" r="6" fill="#f1e05a"/>\n  <text x="305" y="130" fill="#c9d1d9" font-family="Arial, Helvetica, sans-serif" font-size="14px" font-weight="400" text-anchor="start">TypeScript  18%</text>\n  <circle cx="290" cy="152" r="6" fill="#3178c6"/>\n  <text x="305" y="157" fill="#c9d1d9" font-family="Arial, Helvetica, sans-serif" font-size="14px" font-weight="400" text-anchor="start">Jupyter Notebook  12%</text>\n  <circle cx="290" cy="179" r="6" fill="#e34c26"/>\n  <text x="305" y="184" fill="#c9d1d9" font-family="Arial, Helvetica, sans-serif" font-size="14px" font-weight="400" text-anchor="start">JavaScript  6%</text>
</svg>
